# xmcd
#
# Track frame offsets: 
#        150
#        21467
#        40740
#        56066
#
# Disc length: 1013 seconds
#
# Revision: 2
# Processed by: cddbd v1.5.1PL2 Copyright (c) Steve Scherf et al.
# Submitted via: ExactAudioCopy v0.95b3
#
DISCID=3003f304
DTITLE=Jean Mann - Daisies and Fire EP
DYEAR=2006
DGENRE=Folk
TTITLE0=Blue Soul
TTITLE1=Pull Over
TTITLE2=Daisies and Fire
TTITLE3=Take my Hand
EXTD=YEAR: 1996
EXTT0=
EXTT1=
EXTT2=
EXTT3=
PLAYORDER=
